<svg width="140" height="140" viewBox="0 0 140 140" fill="none" xmlns="http://www.w3.org/2000/svg">
<circle cx="70" cy="70" r="69" fill="url(#paint0_radial_28_72)" stroke="#48FFA7" stroke-width="2"/>
<mask id="path-2-inside-1_28_72" fill="white">
<path fill-rule="evenodd" clip-rule="evenodd" d="M87.9714 19H51.5428V52.0286H19V88.4572H51.5428V121H87.9714V88.4572H121V52.0286H87.9714V19Z"/>
</mask>
<path fill-rule="evenodd" clip-rule="evenodd" d="M87.9714 19H51.5428V52.0286H19V88.4572H51.5428V121H87.9714V88.4572H121V52.0286H87.9714V19Z" fill="white"/>
<path d="M51.5428 19V14H46.5428V19H51.5428ZM87.9714 19H92.9714V14H87.9714V19ZM51.5428 52.0286V57.0286H56.5428V52.0286H51.5428ZM19 52.0286V47.0286H14V52.0286H19ZM19 88.4572H14V93.4572H19V88.4572ZM51.5428 88.4572H56.5428V83.4572H51.5428V88.4572ZM51.5428 121H46.5428V126H51.5428V121ZM87.9714 121V126H92.9714V121H87.9714ZM87.9714 88.4572V83.4572H82.9714V88.4572H87.9714ZM121 88.4572V93.4572H126V88.4572H121ZM121 52.0286H126V47.0286H121V52.0286ZM87.9714 52.0286H82.9714V57.0286H87.9714V52.0286ZM51.5428 24H87.9714V14H51.5428V24ZM56.5428 52.0286V19H46.5428V52.0286H56.5428ZM19 57.0286H51.5428V47.0286H19V57.0286ZM24 88.4572V52.0286H14V88.4572H24ZM51.5428 83.4572H19V93.4572H51.5428V83.4572ZM56.5428 121V88.4572H46.5428V121H56.5428ZM87.9714 116H51.5428V126H87.9714V116ZM82.9714 88.4572V121H92.9714V88.4572H82.9714ZM121 83.4572H87.9714V93.4572H121V83.4572ZM116 52.0286V88.4572H126V52.0286H116ZM87.9714 57.0286H121V47.0286H87.9714V57.0286ZM82.9714 19V52.0286H92.9714V19H82.9714Z" fill="#48FFA7" mask="url(#path-2-inside-1_28_72)"/>
<defs>
<radialGradient id="paint0_radial_28_72" cx="0" cy="0" r="1" gradientUnits="userSpaceOnUse" gradientTransform="translate(70 70) rotate(90) scale(80.5)">
<stop stop-color="#48FFA7"/>
<stop offset="1" stop-color="#C4FFE3" stop-opacity="0"/>
</radialGradient>
</defs>
</svg>
