<svg width="674" height="216" viewBox="0 0 674 216" fill="none" xmlns="http://www.w3.org/2000/svg">
<path d="M116.79 98.68C116.79 101.527 116.137 104.14 114.83 106.52C113.523 108.853 111.517 110.743 108.81 112.19C106.103 113.637 102.743 114.36 98.73 114.36H91.31V132H79.34V82.86H98.73C102.65 82.86 105.963 83.5367 108.67 84.89C111.377 86.2433 113.407 88.11 114.76 90.49C116.113 92.87 116.79 95.6 116.79 98.68ZM97.82 104.84C100.107 104.84 101.81 104.303 102.93 103.23C104.05 102.157 104.61 100.64 104.61 98.68C104.61 96.72 104.05 95.2033 102.93 94.13C101.81 93.0567 100.107 92.52 97.82 92.52H91.31V104.84H97.82ZM134.782 82.86V112.26C134.782 115.2 135.505 117.463 136.952 119.05C138.398 120.637 140.522 121.43 143.322 121.43C146.122 121.43 148.268 120.637 149.762 119.05C151.255 117.463 152.002 115.2 152.002 112.26V82.86H163.972V112.19C163.972 116.577 163.038 120.287 161.172 123.32C159.305 126.353 156.785 128.64 153.612 130.18C150.485 131.72 146.985 132.49 143.112 132.49C139.238 132.49 135.762 131.743 132.682 130.25C129.648 128.71 127.245 126.423 125.472 123.39C123.698 120.31 122.812 116.577 122.812 112.19V82.86H134.782ZM190.157 132.49C186.564 132.49 183.344 131.907 180.497 130.74C177.65 129.573 175.364 127.847 173.637 125.56C171.957 123.273 171.07 120.52 170.977 117.3H183.717C183.904 119.12 184.534 120.52 185.607 121.5C186.68 122.433 188.08 122.9 189.807 122.9C191.58 122.9 192.98 122.503 194.007 121.71C195.034 120.87 195.547 119.727 195.547 118.28C195.547 117.067 195.127 116.063 194.287 115.27C193.494 114.477 192.49 113.823 191.277 113.31C190.11 112.797 188.43 112.213 186.237 111.56C183.064 110.58 180.474 109.6 178.467 108.62C176.46 107.64 174.734 106.193 173.287 104.28C171.84 102.367 171.117 99.87 171.117 96.79C171.117 92.2167 172.774 88.6467 176.087 86.08C179.4 83.4667 183.717 82.16 189.037 82.16C194.45 82.16 198.814 83.4667 202.127 86.08C205.44 88.6467 207.214 92.24 207.447 96.86H194.497C194.404 95.2733 193.82 94.0367 192.747 93.15C191.674 92.2167 190.297 91.75 188.617 91.75C187.17 91.75 186.004 92.1467 185.117 92.94C184.23 93.6867 183.787 94.7833 183.787 96.23C183.787 97.8167 184.534 99.0533 186.027 99.94C187.52 100.827 189.854 101.783 193.027 102.81C196.2 103.883 198.767 104.91 200.727 105.89C202.734 106.87 204.46 108.293 205.907 110.16C207.354 112.027 208.077 114.43 208.077 117.37C208.077 120.17 207.354 122.713 205.907 125C204.507 127.287 202.454 129.107 199.747 130.46C197.04 131.813 193.844 132.49 190.157 132.49ZM243.934 132L227.414 110.3V132H215.444V82.86H227.414V104.42L243.794 82.86H257.864L238.824 106.94L258.564 132H243.934ZM276.222 92.45V102.39H292.252V111.63H276.222V122.41H294.352V132H264.252V82.86H294.352V92.45H276.222ZM319.903 132.49C316.31 132.49 313.09 131.907 310.243 130.74C307.397 129.573 305.11 127.847 303.383 125.56C301.703 123.273 300.817 120.52 300.723 117.3H313.463C313.65 119.12 314.28 120.52 315.353 121.5C316.427 122.433 317.827 122.9 319.553 122.9C321.327 122.9 322.727 122.503 323.753 121.71C324.78 120.87 325.293 119.727 325.293 118.28C325.293 117.067 324.873 116.063 324.033 115.27C323.24 114.477 322.237 113.823 321.023 113.31C319.857 112.797 318.177 112.213 315.983 111.56C312.81 110.58 310.22 109.6 308.213 108.62C306.207 107.64 304.48 106.193 303.033 104.28C301.587 102.367 300.863 99.87 300.863 96.79C300.863 92.2167 302.52 88.6467 305.833 86.08C309.147 83.4667 313.463 82.16 318.783 82.16C324.197 82.16 328.56 83.4667 331.873 86.08C335.187 88.6467 336.96 92.24 337.193 96.86H324.243C324.15 95.2733 323.567 94.0367 322.493 93.15C321.42 92.2167 320.043 91.75 318.363 91.75C316.917 91.75 315.75 92.1467 314.863 92.94C313.977 93.6867 313.533 94.7833 313.533 96.23C313.533 97.8167 314.28 99.0533 315.773 99.94C317.267 100.827 319.6 101.783 322.773 102.81C325.947 103.883 328.513 104.91 330.473 105.89C332.48 106.87 334.207 108.293 335.653 110.16C337.1 112.027 337.823 114.43 337.823 117.37C337.823 120.17 337.1 122.713 335.653 125C334.253 127.287 332.2 129.107 329.493 130.46C326.787 131.813 323.59 132.49 319.903 132.49ZM400.84 82.86V132H388.87V102.53L377.88 132H368.22L357.16 102.46V132H345.19V82.86H359.33L373.12 116.88L386.77 82.86H400.84ZM440.037 123.32H421.697L418.757 132H406.227L424.007 82.86H437.867L455.647 132H442.977L440.037 123.32ZM436.957 114.08L430.867 96.09L424.847 114.08H436.957ZM478.839 132.49C475.245 132.49 472.025 131.907 469.179 130.74C466.332 129.573 464.045 127.847 462.319 125.56C460.639 123.273 459.752 120.52 459.659 117.3H472.399C472.585 119.12 473.215 120.52 474.289 121.5C475.362 122.433 476.762 122.9 478.489 122.9C480.262 122.9 481.662 122.503 482.689 121.71C483.715 120.87 484.229 119.727 484.229 118.28C484.229 117.067 483.809 116.063 482.969 115.27C482.175 114.477 481.172 113.823 479.959 113.31C478.792 112.797 477.112 112.213 474.919 111.56C471.745 110.58 469.155 109.6 467.149 108.62C465.142 107.64 463.415 106.193 461.969 104.28C460.522 102.367 459.799 99.87 459.799 96.79C459.799 92.2167 461.455 88.6467 464.769 86.08C468.082 83.4667 472.399 82.16 477.719 82.16C483.132 82.16 487.495 83.4667 490.809 86.08C494.122 88.6467 495.895 92.24 496.129 96.86H483.179C483.085 95.2733 482.502 94.0367 481.429 93.15C480.355 92.2167 478.979 91.75 477.299 91.75C475.852 91.75 474.685 92.1467 473.799 92.94C472.912 93.6867 472.469 94.7833 472.469 96.23C472.469 97.8167 473.215 99.0533 474.709 99.94C476.202 100.827 478.535 101.783 481.709 102.81C484.882 103.883 487.449 104.91 489.409 105.89C491.415 106.87 493.142 108.293 494.589 110.16C496.035 112.027 496.759 114.43 496.759 117.37C496.759 120.17 496.035 122.713 494.589 125C493.189 127.287 491.135 129.107 488.429 130.46C485.722 131.813 482.525 132.49 478.839 132.49ZM532.615 132L516.095 110.3V132H504.125V82.86H516.095V104.42L532.475 82.86H546.545L527.505 106.94L547.245 132H532.615ZM564.694 82.86V112.26C564.694 115.2 565.417 117.463 566.864 119.05C568.31 120.637 570.434 121.43 573.234 121.43C576.034 121.43 578.18 120.637 579.674 119.05C581.167 117.463 581.914 115.2 581.914 112.26V82.86H593.884V112.19C593.884 116.577 592.95 120.287 591.084 123.32C589.217 126.353 586.697 128.64 583.524 130.18C580.397 131.72 576.897 132.49 573.024 132.49C569.15 132.49 565.674 131.743 562.594 130.25C559.56 128.71 557.157 126.423 555.384 123.39C553.61 120.31 552.724 116.577 552.724 112.19V82.86H564.694Z" fill="#48FFA7"/>
<mask id="path-2-inside-1_14_8" fill="white">
<path fill-rule="evenodd" clip-rule="evenodd" d="M68.9714 4H32.5428V37.0286H0V73.4572H32.5428V106H68.9714V73.4572H102V37.0286H68.9714V4Z"/>
</mask>
<path fill-rule="evenodd" clip-rule="evenodd" d="M68.9714 4H32.5428V37.0286H0V73.4572H32.5428V106H68.9714V73.4572H102V37.0286H68.9714V4Z" fill="white"/>
<path d="M32.5428 4V-1H27.5428V4H32.5428ZM68.9714 4H73.9714V-1H68.9714V4ZM32.5428 37.0286V42.0286H37.5428V37.0286H32.5428ZM0 37.0286V32.0286H-5V37.0286H0ZM0 73.4572H-5V78.4572H0V73.4572ZM32.5428 73.4572H37.5428V68.4572H32.5428V73.4572ZM32.5428 106H27.5428V111H32.5428V106ZM68.9714 106V111H73.9714V106H68.9714ZM68.9714 73.4572V68.4572H63.9714V73.4572H68.9714ZM102 73.4572V78.4572H107V73.4572H102ZM102 37.0286H107V32.0286H102V37.0286ZM68.9714 37.0286H63.9714V42.0286H68.9714V37.0286ZM32.5428 9H68.9714V-1H32.5428V9ZM37.5428 37.0286V4H27.5428V37.0286H37.5428ZM0 42.0286H32.5428V32.0286H0V42.0286ZM5 73.4572V37.0286H-5V73.4572H5ZM32.5428 68.4572H0V78.4572H32.5428V68.4572ZM37.5428 106V73.4572H27.5428V106H37.5428ZM68.9714 101H32.5428V111H68.9714V101ZM63.9714 73.4572V106H73.9714V73.4572H63.9714ZM102 68.4572H68.9714V78.4572H102V68.4572ZM97 37.0286V73.4572H107V37.0286H97ZM68.9714 42.0286H102V32.0286H68.9714V42.0286ZM63.9714 4V37.0286H73.9714V4H63.9714Z" fill="#48FFA7" mask="url(#path-2-inside-1_14_8)"/>
<mask id="path-4-inside-2_14_8" fill="white">
<path fill-rule="evenodd" clip-rule="evenodd" d="M640.971 111H604.543V144.029H572V180.457H604.543V213H640.971V180.457H674V144.029H640.971V111Z"/>
</mask>
<path fill-rule="evenodd" clip-rule="evenodd" d="M640.971 111H604.543V144.029H572V180.457H604.543V213H640.971V180.457H674V144.029H640.971V111Z" fill="white"/>
<path d="M604.543 111V106H599.543V111H604.543ZM640.971 111H645.971V106H640.971V111ZM604.543 144.029V149.029H609.543V144.029H604.543ZM572 144.029V139.029H567V144.029H572ZM572 180.457H567V185.457H572V180.457ZM604.543 180.457H609.543V175.457H604.543V180.457ZM604.543 213H599.543V218H604.543V213ZM640.971 213V218H645.971V213H640.971ZM640.971 180.457V175.457H635.971V180.457H640.971ZM674 180.457V185.457H679V180.457H674ZM674 144.029H679V139.029H674V144.029ZM640.971 144.029H635.971V149.029H640.971V144.029ZM604.543 116H640.971V106H604.543V116ZM609.543 144.029V111H599.543V144.029H609.543ZM572 149.029H604.543V139.029H572V149.029ZM577 180.457V144.029H567V180.457H577ZM604.543 175.457H572V185.457H604.543V175.457ZM609.543 213V180.457H599.543V213H609.543ZM640.971 208H604.543V218H640.971V208ZM635.971 180.457V213H645.971V180.457H635.971ZM674 175.457H640.971V185.457H674V175.457ZM669 144.029V180.457H679V144.029H669ZM640.971 149.029H674V139.029H640.971V149.029ZM635.971 111V144.029H645.971V111H635.971Z" fill="#48FFA7" mask="url(#path-4-inside-2_14_8)"/>
<path d="M136.5 47.5C154.333 22.5 206.5 -17.7 272.5 21.5C338.5 60.7 500.333 37.8333 573 21.5" stroke="#48FFA7" stroke-width="10"/>
<path d="M540.5 168C522.667 193 470.5 233.2 404.5 194C338.5 154.8 176.667 177.667 104 194" stroke="#48FFA7" stroke-width="10"/>
</svg>
